#!OML:ASF F:\VICON\USERDATA\INSTALL\rory3\rory3.ASF
:FULLY-SPECIFIED
:DEGREES
36
root 0.36587275726722834 17.887805771387292 2.646790064339134 -1.0616811032643771 2.3171889078261807 1.1838177515297157
lfemur 16.115402549243353 -7.453265285741777 -26.06172393692013
ltibia 26.444094466532004
lfoot -2.0049431952873187 -3.315237303772152
ltoes -4.1579465390655095
rfemur -27.142452253045874 3.581250467758617 21.35878252754014
rtibia 24.89871365227601
rfoot -7.082769321629403 -10.32439745845435
rtoes -2.382733029385611
lowerback 9.10622158997852 -1.2063347673296976 -3.1266202194317003
upperback 0.4661854423209347 -2.011614000045208 1.4610974474495224
thorax -4.602966400493759 -0.5687195432624683 3.2503429351109947
lowerneck -16.755627746393035 -2.862414485240873 -2.1654911592943926
upperneck 21.589893485461737 -4.115827354391795 0.8061288965758416
head 9.640778315637247 -1.9098052445674187 0.02106167144633038
lclavicle -1.952116325927859e-15 9.078046966090984e-16
lhumerus -21.283206380964202 -4.99385797583102 83.25062530939276
lradius 27.45275097088008
lwrist 7.320335961491366
lhand -26.97663818310795 24.010791388328848
lfingers 7.12502
lthumb -0.28837927305902555 54.34792627017482
rclavicle -1.9534739328081707e-15 9.065543545675274e-16
rhumerus -33.38760234640955 -27.671200128589696 -73.85994953484622
rradius 21.258217853180433
rwrist 11.484453029845774
rhand -17.89970799963875 22.380418677976834
rfingers 7.12502
rthumb 8.45561239808163 -7.133063470139999
37
root 0.3093466664640299 17.95950572622218 3.58563468454334 -1.3387189636801122 1.7670481297850156 -0.26331256042683493
lfemur 13.17206449860197 -6.842564530457842 -24.092307216433863
ltibia 37.2371065271646
lfoot -0.7030906091808271 -5.466374819783348
ltoes -4.374557440680581
rfemur -25.764771234199763 3.6365196806727935 23.135724602028194
rtibia 27.85795907622613
rfoot -6.321280245129707 -7.177479571069754
rtoes -1.0382532764749093
lowerback 9.017096181661671 -1.0899812385853789 -1.0148715710219742
upperback 0.41556876146050553 -1.7778384315472788 1.8405860782849583
thorax -4.631261925379744 -0.4570566622902046 2.7924291637188916
lowerneck -16.906974904062153 -2.811241768751065 -2.217578708198393
upperneck 21.653169773772436 -3.951227056069372 0.7555825034490353
head 9.638067947738781 -1.853690043545914 0.021200752881635365
lclavicle -1.952115379348925e-15 9.078055683986085e-16
lhumerus -22.354242133469526 -4.4639333305318445 83.65870145973842
lradius 27.685387014669676
lwrist 7.200922193174421
lhand -26.915694736350243 24.170972092885602
lfingers 7.12502
lthumb -0.23642491277695266 54.530333169934245
rclavicle -1.953473886070487e-15 9.06554397612456e-16
rhumerus -33.794827466233464 -28.593647009957664 -73.24888750953329
rradius 20.753078104920064
rwrist 11.588386450091122
rhand -17.944812655658932 22.412443538995475
rfingers 7.12502
rthumb 8.44264429814957 -7.060224605934549
38
root 0.23266317974316789 18.035450564128922 3.907295201106164 -1.7234479428302187 1.3652036712404052 -1.7608676708542275
lfemur 8.880030214001014 -5.662488924521907 -21.596573002514194
ltibia 47.79438735628555
lfoot 0.9887628418582741 -6.45981086080483
ltoes -4.286636304373331
rfemur -23.557302255425274 3.778668411549588 24.997746768286767
rtibia 30.01678430433816
rfoot -6.671027046410247 -4.77316228747322
rtoes 1.9983519710859674
lowerback 9.032404890139725 -0.9440581159088305 0.2925587389453497
upperback 0.3420725363840849 -1.5330310297530776 2.213270885969209
thorax -4.668054607517417 -0.32027346022631165 2.387994883230149
lowerneck -16.919287754421493 -2.7242947889634457 -2.2286355883359352
upperneck 21.657257481331087 -3.795430976593766 0.701639008673289
head 9.61778656335228 -1.8008510013463717 0.03195816143826585
lclavicle -1.952114849997913e-15 9.07806055925473e-16
lhumerus -23.86060044972175 -4.300239041587788 84.09675802759565
lradius 27.663641089678624
lwrist 6.861671018529032
lhand -26.848114353585892 24.222162182972454
lfingers 7.12502
lthumb -0.24342499999563438 54.477569023790245
rclavicle -1.9534740179681245e-15 9.065542761360817e-16
rhumerus -33.3816981496945 -27.766732178479074 -73.89182936403358
rradius 20.467217218808187
rwrist 11.672533692466935
rhand -17.94805561740907 22.396124732687056
rfingers 7.12502
rthumb 8.425250326453181 -7.187354932796468
39
root 0.15863851522040756 18.111971153700722 4.3412765513483595 -2.174561906820278 1.061531605026914 -2.992835382211991
lfemur 3.529889900571595 -4.522243799077401 -18.463897406110995
ltibia 58.606466222767224
lfoot 2.633545232914595 -7.310732866017598
ltoes -3.7759032831524806
rfemur -20.967501330990416 4.122580277057371 26.770923944787125
rtibia 31.07781727395262
rfoot -7.13172419325315 -4.040935723025134
rtoes 4.957257918590874
lowerback 9.156991368463602 -0.7139757815141073 1.6127975529382053
upperback 0.32034117027042047 -1.080716512218864 2.5691876605226884
thorax -4.708711973495615 -0.1802165341542531 1.7698429397392341
lowerneck -16.912239738280963 -2.6888108644994184 -2.3078021818140457
upperneck 21.586064820062795 -3.69277638258106 0.6589862992015999
head 9.588076773005339 -1.7712628757166557 0.026598356616317723
lclavicle -1.952115757716965e-15 9.078052199255167e-16
lhumerus -25.48938777646899 -3.8816403385636438 84.49035836968696
lradius 27.41575505977847
lwrist 6.404721446406883
lhand -26.849857277556893 24.170967052347915
lfingers 7.12502
lthumb -0.2106957647371286 54.50957286931014
rclavicle -1.953474407354189e-15 9.065539175155015e-16
rhumerus -31.76529392870457 -25.336390438216984 -75.6837223450299
rradius 20.459516561911254
rwrist 11.549973261952125
rhand -17.91041173642888 22.154146694415843
rfingers 7.12502
rthumb 8.454640218577081 -7.500891856656038
